<svg width="9625" height="4002" viewBox="0 0 9625 4002" fill="none" xmlns="http://www.w3.org/2000/svg">
<g clip-path="url(#clip0_8_41)">
<path d="M5870 3010.54C5875.23 3013.11 5875.53 3007.77 5876.99 3005.6C5887.59 2989.82 5897.84 2973.82 5908.17 2957.85C6000.54 2815.19 6092.91 2672.52 6185.29 2529.85C6401.47 2196.02 6617.61 1862.18 6833.81 1528.37C7036.78 1214.97 7239.79 901.606 7442.77 588.227C7552.32 419.084 7661.82 249.927 7771.36 80.7707C7786.02 58.1121 7800.69 35.4401 7815.36 12.7815C7816.39 11.1888 7817.4 9.56941 7818.47 8.00352C7825.81 -2.67667 7832.49 -2.70344 7839.13 8.20427C7847.44 21.8423 7855.49 35.6275 7863.64 49.3592C7906.48 121.631 7949.05 194.064 7992.39 266.041C7999.41 277.725 7999.55 286.184 7991.99 297.841C7868.37 488.224 7745.22 678.902 7622.01 869.539C7412.31 1193.97 7202.67 1518.45 6992.99 1842.88C6792.79 2152.63 6592.59 2462.37 6392.37 2772.11C6339.73 2853.54 6286.97 2934.88 6234.57 3016.46C6229.08 3025.01 6223.21 3028.74 6212.57 3028.69C6110.21 3028.12 6007.85 3028.16 5905.51 3028.02C5899.04 3028.02 5892.44 3028.77 5886.14 3027.75C5880.6 3026.86 5875.38 3023.97 5870.03 3021.96C5870.03 3018.16 5870.03 3014.36 5870.03 3010.54H5870Z" fill="#CC9E32"/>
<path d="M9097.61 2743.89C8763.06 2182.87 8429.81 1624.02 8095.54 1063.46C8092.3 1068.11 8089.9 1071.26 8087.81 1074.59C8030.3 1166.87 7972.82 1259.19 7915.34 1351.49C7815.43 1511.88 7715.53 1672.28 7615.6 1832.66C7488.93 2035.95 7362.23 2239.24 7235.58 2442.55C7115.55 2635.21 6995.52 2827.85 6875.7 3020.65C6870.31 3029.32 6864.54 3033.23 6853.85 3033.09C6774.32 3032.17 6694.8 3031.94 6615.27 3031.47C6577.98 3031.26 6540.7 3030.97 6503.41 3030.71C6501.51 3030.71 6499.6 3030.81 6497.71 3030.67C6488.14 3029.96 6483.66 3022.71 6487.58 3013.92C6489.12 3010.48 6491.41 3007.36 6493.43 3004.13C6646.91 2759.75 6800.42 2515.39 6953.89 2270.99C7141.33 1972.5 7328.74 1673.99 7516.18 1375.51C7688.06 1101.81 7859.93 828.13 8031.82 554.446C8047.8 529.004 8063.75 503.561 8079.73 478.132C8081.35 475.563 8082.81 472.832 8084.77 470.544C8089.7 464.775 8095.36 464.735 8100.22 470.383C8101.93 472.377 8103.18 474.8 8104.54 477.075C8237.36 699.325 8370.16 921.575 8502.99 1143.81C8606.36 1316.77 8709.81 1489.69 8813.21 1662.64C8958.93 1906.41 9104.64 2150.18 9250.36 2393.96C9363.31 2582.91 9476.24 2771.86 9589.18 2960.81C9599.51 2978.1 9609.87 2995.39 9620.19 3012.7C9621.36 3014.65 9622.6 3016.61 9623.42 3018.72C9626.66 3027.06 9622.35 3033.98 9613.3 3034.87C9609.9 3035.21 9606.46 3034.97 9603.04 3034.95C9415.82 3034.57 9228.6 3034.14 9041.39 3033.76C8656.3 3033 8271.21 3032.26 7886.12 3031.49C7800.51 3031.31 7714.89 3030.85 7629.29 3031.01C7619.01 3031.02 7613.59 3027.51 7609.04 3018.51C7536.57 2874.97 7463.86 2731.55 7390.96 2588.23C7386.49 2579.44 7386.53 2572.63 7391.77 2564.04C7573.81 2264.47 7755.63 1964.77 7937.47 1665.08C7981.27 1592.93 8025.28 1520.91 8068.66 1448.5C8076.46 1435.47 8084.16 1430.21 8094.87 1448.97C8140.29 1528.54 8186.28 1607.78 8232.37 1686.96C8237.42 1695.63 8237.22 1702.39 8232.02 1711.03C8060.64 1996.17 7889.51 2281.44 7718.34 2566.69C7717.57 2567.98 7716.96 2569.44 7716.01 2570.61C7711.53 2576.03 7712.07 2580.99 7715.63 2587.06C7731.78 2614.6 7747.44 2642.44 7763.3 2670.15C7778.21 2696.23 7793.38 2722.15 7807.92 2748.42C7811.81 2755.46 7816.53 2757.76 7824.31 2757.38C7840.64 2756.55 7857.02 2756.44 7873.38 2756.28C7997.79 2755.09 8122.22 2753.99 8246.64 2752.81C8324.25 2752.08 8401.87 2751.26 8479.49 2750.47C8549.87 2749.75 8620.27 2748.97 8690.65 2748.25C8767.13 2747.46 8843.6 2746.74 8920.09 2745.89C8975.26 2745.29 9030.43 2744.55 9085.59 2743.89C9088.62 2743.85 9091.64 2743.89 9097.68 2743.89H9097.61Z" fill="#CC9E32"/>
</g>
<g clip-path="url(#clip1_8_41)">
<path d="M4160.59 2149.7C4183.02 2097.41 4204.73 2046.82 4226.43 1996.23C4347.51 1713.82 4468.61 1431.43 4589.53 1148.95C4592.62 1141.71 4595.72 1137.99 4604.61 1138C4773.82 1138.31 4943.05 1138.23 5112.26 1138.25C5115.11 1138.25 5117.95 1138.54 5122.09 1138.76C5223.64 1770.34 5325.14 2401.71 5426.79 3033.97H4899.23C4849.44 2671.39 4799.73 2309.32 4750.01 1947.26C4749.24 1947.14 4748.46 1947.01 4747.7 1946.89C4733.36 1978.66 4719 2010.42 4704.71 2042.21C4591.44 2294.14 4478.2 2546.09 4364.95 2798.03C4330.99 2873.58 4296.89 2949.05 4263.22 3024.73C4259.85 3032.31 4255.99 3034.97 4247.59 3034.92C4184.96 3034.52 4122.33 3034.52 4059.71 3034.92C4051.21 3034.97 4047.61 3032.09 4044.33 3024.48C3892.34 2669.72 3740.11 2315.05 3587.9 1960.38C3585.97 1955.88 3583.9 1951.45 3580.33 1943.47C3522.59 2309.35 3465.41 2671.63 3408.2 3034.2H2880.73C2886.02 3004.87 2891.17 2976.18 2896.38 2947.5C2926.68 2780.48 2956.99 2613.48 2987.32 2446.46C3014.98 2294.11 3042.67 2141.78 3070.35 1989.45C3099.07 1831.4 3127.78 1673.36 3156.52 1515.31C3178.81 1392.71 3201.2 1270.12 3223.23 1147.48C3224.56 1140.07 3227.32 1138.11 3234.42 1138.11C3403.22 1138.27 3572.03 1138.29 3740.82 1138.04C3748.83 1138.04 3751.32 1141.79 3753.87 1148.09C3824.26 1321.97 3894.78 1495.79 3965.28 1669.62C4028.32 1825.03 4091.34 1980.45 4154.4 2135.85C4156.07 2139.99 4158.02 2144 4160.58 2149.69L4160.59 2149.7Z" fill="#CC9F33"/>
<path d="M1819.05 1138.91C1549.86 1439.08 1282.6 1737.1 1014.8 2035.71C1308.1 2368.25 1600.88 2700.19 1894.87 3033.5C1890.61 3034 1887.67 3034.65 1884.73 3034.65C1664.09 3034.69 1443.45 3034.74 1222.82 3034.36C1217.29 3034.36 1210.06 3030.8 1206.48 3026.53C1019.73 2803.41 833.299 2580.02 646.823 2356.67C609.63 2312.13 572.396 2267.62 535.256 2223.03C533.235 2220.61 531.897 2217.64 530.224 2214.92C529.06 2215.66 527.909 2216.4 526.744 2217.14V3033.94H0V1139H526.624V1915.07C527.574 1915.35 528.524 1915.64 529.474 1915.92C532.874 1911.92 536.34 1907.98 539.686 1903.93C747.563 1651.48 955.399 1399 1163.53 1146.77C1167.1 1142.43 1174.22 1138.59 1179.7 1138.59C1389.14 1138.17 1598.57 1138.24 1808.01 1138.27C1810.77 1138.27 1813.52 1138.59 1819.04 1138.92L1819.05 1138.91Z" fill="#CC9F33"/>
<path d="M2601.12 3034.12H2074.96V1139.23H2601.12V3034.12Z" fill="#CC9F33"/>
</g>
<path d="M289.788 3683V3357.15H334.913V3529.57L500.688 3357.15H556.738L432.763 3487.3L561.013 3683H507.338L401.413 3519.6L334.913 3582.3V3683H289.788ZM543.108 3683L671.833 3357.15H731.208L860.408 3683H811.483L779.658 3602.25H621.008L589.658 3683H543.108ZM635.733 3563.77H764.458L725.033 3461.65C724.083 3458.8 722.658 3454.84 720.758 3449.77C718.858 3444.71 716.8 3439.17 714.583 3433.15C712.367 3426.82 710.15 3420.48 707.933 3414.15C705.717 3407.5 703.658 3401.48 701.758 3396.1H698.908C696.692 3402.43 694.158 3409.72 691.308 3417.95C688.458 3426.18 685.608 3434.26 682.758 3442.17C679.908 3449.77 677.533 3456.27 675.633 3461.65L635.733 3563.77ZM946.535 3683L855.81 3357.15H904.26L962.21 3577.07C963.16 3580.56 964.269 3585.62 965.535 3592.27C967.119 3598.61 968.702 3605.26 970.285 3612.22C971.869 3619.19 973.135 3625.37 974.085 3630.75H977.41C978.36 3626.63 979.152 3622.04 979.785 3616.97C980.735 3611.91 981.685 3606.84 982.635 3601.77C983.902 3596.71 985.01 3591.96 985.96 3587.52C986.91 3583.09 987.544 3579.61 987.86 3577.07L1042.01 3357.15H1100.44L1154.59 3577.07C1155.54 3580.56 1156.64 3585.62 1157.91 3592.27C1159.49 3598.61 1160.92 3605.26 1162.19 3612.22C1163.77 3619.19 1165.04 3625.37 1165.99 3630.75H1169.31C1170.26 3626.63 1171.21 3622.2 1172.16 3617.45C1173.11 3612.38 1174.22 3607.32 1175.49 3602.25C1176.75 3597.18 1177.86 3592.43 1178.81 3588C1180.08 3583.57 1181.03 3579.92 1181.66 3577.07L1240.09 3357.15H1282.84L1192.11 3683H1137.96L1081.44 3461.65C1080.49 3456.9 1079.38 3451.36 1078.11 3445.02C1076.84 3438.37 1075.58 3431.57 1074.31 3424.6C1073.04 3417.63 1071.94 3411.62 1070.99 3406.55H1068.14C1067.5 3411.93 1066.55 3418.11 1065.29 3425.07C1064.02 3432.04 1062.59 3438.85 1061.01 3445.5C1059.74 3452.15 1058.64 3457.53 1057.69 3461.65L1002.59 3683H946.535ZM1278.8 3683L1407.53 3357.15H1466.9L1596.1 3683H1547.18L1515.35 3602.25H1356.7L1325.35 3683H1278.8ZM1371.43 3563.77H1500.15L1460.73 3461.65C1459.78 3458.8 1458.35 3454.84 1456.45 3449.77C1454.55 3444.71 1452.49 3439.17 1450.28 3433.15C1448.06 3426.82 1445.84 3420.48 1443.63 3414.15C1441.41 3407.5 1439.35 3401.48 1437.45 3396.1H1434.6C1432.38 3402.43 1429.85 3409.72 1427 3417.95C1424.15 3426.18 1421.3 3434.26 1418.45 3442.17C1415.6 3449.77 1413.23 3456.27 1411.33 3461.65L1371.43 3563.77ZM1759.81 3688.7C1742.07 3688.7 1724.97 3686.96 1708.51 3683.48C1692.36 3679.99 1677.95 3674.45 1665.28 3666.85C1652.61 3658.93 1642.48 3648.8 1634.88 3636.45C1627.6 3624.1 1623.96 3608.9 1623.96 3590.85C1623.96 3589.27 1623.96 3587.68 1623.96 3586.1C1624.27 3584.52 1624.43 3582.93 1624.43 3581.35H1670.03C1670.03 3582.3 1669.87 3583.88 1669.56 3586.1C1669.56 3588 1669.56 3589.74 1669.56 3591.32C1669.56 3603.99 1673.36 3614.76 1680.96 3623.62C1688.56 3632.49 1699.01 3639.14 1712.31 3643.57C1725.92 3647.69 1741.28 3649.75 1758.38 3649.75C1765.98 3649.75 1773.9 3649.27 1782.13 3648.32C1790.68 3647.37 1798.76 3645.79 1806.36 3643.57C1814.27 3641.04 1821.24 3637.87 1827.26 3634.07C1833.59 3629.96 1838.5 3625.05 1841.98 3619.35C1845.78 3613.33 1847.68 3606.05 1847.68 3597.5C1847.68 3586.73 1844.51 3577.87 1838.18 3570.9C1832.16 3563.62 1824.09 3557.76 1813.96 3553.32C1803.82 3548.57 1792.26 3544.46 1779.28 3540.97C1766.61 3537.17 1753.47 3533.53 1739.86 3530.05C1726.24 3526.57 1712.94 3522.61 1699.96 3518.17C1687.29 3513.42 1675.89 3507.72 1665.76 3501.07C1655.62 3494.11 1647.39 3485.56 1641.06 3475.42C1635.04 3465.29 1632.03 3452.94 1632.03 3438.37C1632.03 3424.76 1634.72 3412.57 1640.11 3401.8C1645.81 3391.03 1654.04 3382.01 1664.81 3374.72C1675.89 3367.12 1689.51 3361.42 1705.66 3357.62C1721.81 3353.51 1740.33 3351.45 1761.23 3351.45C1778.33 3351.45 1794.16 3353.35 1808.73 3357.15C1823.61 3360.63 1836.6 3366.17 1847.68 3373.77C1859.08 3381.06 1867.95 3390.4 1874.28 3401.8C1880.61 3413.2 1883.78 3426.97 1883.78 3443.13V3448.82H1839.13V3441.7C1839.13 3430.93 1835.81 3421.75 1829.16 3414.15C1822.51 3406.55 1813.32 3400.69 1801.61 3396.57C1790.21 3392.46 1777.22 3390.4 1762.66 3390.4C1743.66 3390.4 1727.82 3392.3 1715.16 3396.1C1702.49 3399.58 1692.99 3404.81 1686.66 3411.77C1680.64 3418.42 1677.63 3426.02 1677.63 3434.57C1677.63 3444.39 1680.64 3452.62 1686.66 3459.27C1692.99 3465.92 1701.22 3471.47 1711.36 3475.9C1721.49 3480.02 1733.05 3483.82 1746.03 3487.3C1759.01 3490.78 1772.16 3494.42 1785.46 3498.22C1799.07 3501.71 1812.21 3505.82 1824.88 3510.57C1837.86 3515.01 1849.42 3520.71 1859.56 3527.67C1870.01 3534.32 1878.24 3542.87 1884.26 3553.32C1890.27 3563.46 1893.28 3575.97 1893.28 3590.85C1893.28 3613.97 1887.58 3632.81 1876.18 3647.37C1864.78 3661.62 1849.11 3672.07 1829.16 3678.72C1809.21 3685.37 1786.09 3688.7 1759.81 3688.7ZM1922.19 3683L2050.91 3357.15H2110.29L2239.49 3683H2190.56L2158.74 3602.25H2000.09L1968.74 3683H1922.19ZM2014.81 3563.77H2143.54L2104.11 3461.65C2103.16 3458.8 2101.74 3454.84 2099.84 3449.77C2097.94 3444.71 2095.88 3439.17 2093.66 3433.15C2091.44 3426.82 2089.23 3420.48 2087.01 3414.15C2084.79 3407.5 2082.74 3401.48 2080.84 3396.1H2077.99C2075.77 3402.43 2073.24 3409.72 2070.39 3417.95C2067.54 3426.18 2064.69 3434.26 2061.84 3442.17C2058.99 3449.77 2056.61 3456.27 2054.71 3461.65L2014.81 3563.77ZM2283.49 3683V3357.15H2327.19L2485.36 3571.85C2486.95 3573.75 2489.01 3576.6 2491.54 3580.4C2494.07 3584.2 2496.61 3588 2499.14 3591.8C2501.67 3595.28 2503.73 3598.45 2505.31 3601.3H2507.21C2507.21 3596.23 2507.21 3591.32 2507.21 3586.57C2507.21 3581.51 2507.21 3576.6 2507.21 3571.85V3357.15H2551.39V3683H2510.06L2349.99 3464.5C2347.77 3461.02 2344.45 3456.11 2340.01 3449.77C2335.9 3443.44 2332.41 3438.37 2329.56 3434.57H2327.19C2327.19 3439.64 2327.19 3444.71 2327.19 3449.77C2327.19 3454.52 2327.19 3459.43 2327.19 3464.5V3683H2283.49ZM2732.51 3683V3357.15H2777.64V3683H2732.51ZM2859.15 3683V3357.15H2902.85L3061.02 3571.85C3062.61 3573.75 3064.67 3576.6 3067.2 3580.4C3069.73 3584.2 3072.27 3588 3074.8 3591.8C3077.33 3595.28 3079.39 3598.45 3080.97 3601.3H3082.87C3082.87 3596.23 3082.87 3591.32 3082.87 3586.57C3082.87 3581.51 3082.87 3576.6 3082.87 3571.85V3357.15H3127.05V3683H3085.72L2925.65 3464.5C2923.43 3461.02 2920.11 3456.11 2915.67 3449.77C2911.56 3443.44 2908.07 3438.37 2905.22 3434.57H2902.85C2902.85 3439.64 2902.85 3444.71 2902.85 3449.77C2902.85 3454.52 2902.85 3459.43 2902.85 3464.5V3683H2859.15ZM3208.9 3683V3357.15H3330.5C3364.7 3357.15 3393.84 3362.85 3417.9 3374.25C3441.97 3385.65 3460.34 3403.38 3473 3427.45C3485.99 3451.2 3492.48 3482.07 3492.48 3520.07C3492.48 3557.44 3485.99 3588.16 3473 3612.22C3460.34 3636.29 3441.97 3654.18 3417.9 3665.9C3393.84 3677.3 3364.7 3683 3330.5 3683H3208.9ZM3254.03 3644.05H3329.55C3347.6 3644.05 3363.75 3641.83 3378 3637.4C3392.25 3632.65 3404.45 3625.52 3414.58 3616.02C3424.71 3606.52 3432.31 3594.33 3437.38 3579.45C3442.76 3564.25 3445.45 3546.2 3445.45 3525.3V3515.8C3445.45 3494.27 3442.76 3476.06 3437.38 3461.17C3432.31 3445.97 3424.71 3433.62 3414.58 3424.12C3404.76 3414.62 3392.73 3407.66 3378.48 3403.22C3364.23 3398.47 3347.92 3396.1 3329.55 3396.1H3254.03V3644.05ZM3689.78 3688.7C3662.23 3688.7 3638.48 3684.27 3618.53 3675.4C3598.58 3666.53 3583.22 3652.6 3572.46 3633.6C3562.01 3614.28 3556.78 3589.58 3556.78 3559.5V3357.15H3601.91V3564.25C3601.91 3592.75 3609.51 3614.12 3624.71 3628.37C3640.22 3642.62 3661.92 3649.75 3689.78 3649.75C3717.97 3649.75 3739.97 3642.62 3755.81 3628.37C3771.64 3614.12 3779.56 3592.75 3779.56 3564.25V3357.15H3824.21V3559.5C3824.21 3589.58 3818.82 3614.28 3808.06 3633.6C3797.29 3652.6 3781.77 3666.53 3761.51 3675.4C3741.56 3684.27 3717.65 3688.7 3689.78 3688.7ZM4024.87 3688.7C4007.14 3688.7 3990.04 3686.96 3973.57 3683.48C3957.42 3679.99 3943.01 3674.45 3930.34 3666.85C3917.68 3658.93 3907.54 3648.8 3899.94 3636.45C3892.66 3624.1 3889.02 3608.9 3889.02 3590.85C3889.02 3589.27 3889.02 3587.68 3889.02 3586.1C3889.34 3584.52 3889.49 3582.93 3889.49 3581.35H3935.09C3935.09 3582.3 3934.94 3583.88 3934.62 3586.1C3934.62 3588 3934.62 3589.74 3934.62 3591.32C3934.62 3603.99 3938.42 3614.76 3946.02 3623.62C3953.62 3632.49 3964.07 3639.14 3977.37 3643.57C3990.99 3647.69 4006.34 3649.75 4023.44 3649.75C4031.04 3649.75 4038.96 3649.27 4047.19 3648.32C4055.74 3647.37 4063.82 3645.79 4071.42 3643.57C4079.34 3641.04 4086.3 3637.87 4092.32 3634.07C4098.65 3629.96 4103.56 3625.05 4107.04 3619.35C4110.84 3613.33 4112.74 3606.05 4112.74 3597.5C4112.74 3586.73 4109.58 3577.87 4103.24 3570.9C4097.23 3563.62 4089.15 3557.76 4079.02 3553.32C4068.89 3548.57 4057.33 3544.46 4044.34 3540.97C4031.68 3537.17 4018.54 3533.53 4004.92 3530.05C3991.3 3526.57 3978 3522.61 3965.02 3518.17C3952.35 3513.42 3940.95 3507.72 3930.82 3501.07C3920.69 3494.11 3912.45 3485.56 3906.12 3475.42C3900.1 3465.29 3897.09 3452.94 3897.09 3438.37C3897.09 3424.76 3899.79 3412.57 3905.17 3401.8C3910.87 3391.03 3919.1 3382.01 3929.87 3374.72C3940.95 3367.12 3954.57 3361.42 3970.72 3357.62C3986.87 3353.51 4005.39 3351.45 4026.29 3351.45C4043.39 3351.45 4059.23 3353.35 4073.79 3357.15C4088.68 3360.63 4101.66 3366.17 4112.74 3373.77C4124.14 3381.06 4133.01 3390.4 4139.34 3401.8C4145.68 3413.2 4148.84 3426.97 4148.84 3443.13V3448.82H4104.19V3441.7C4104.19 3430.93 4100.87 3421.75 4094.22 3414.15C4087.57 3406.55 4078.39 3400.69 4066.67 3396.57C4055.27 3392.46 4042.29 3390.4 4027.72 3390.4C4008.72 3390.4 3992.89 3392.3 3980.22 3396.1C3967.55 3399.58 3958.05 3404.81 3951.72 3411.77C3945.7 3418.42 3942.69 3426.02 3942.69 3434.57C3942.69 3444.39 3945.7 3452.62 3951.72 3459.27C3958.05 3465.92 3966.29 3471.47 3976.42 3475.9C3986.55 3480.02 3998.11 3483.82 4011.09 3487.3C4024.08 3490.78 4037.22 3494.42 4050.52 3498.22C4064.14 3501.71 4077.28 3505.82 4089.94 3510.57C4102.93 3515.01 4114.49 3520.71 4124.62 3527.67C4135.07 3534.32 4143.3 3542.87 4149.32 3553.32C4155.34 3563.46 4158.34 3575.97 4158.34 3590.85C4158.34 3613.97 4152.64 3632.81 4141.24 3647.37C4129.84 3661.62 4114.17 3672.07 4094.22 3678.72C4074.27 3685.37 4051.15 3688.7 4024.87 3688.7ZM4304.57 3683V3396.57H4192.95V3357.15H4462.27V3396.57H4349.7V3683H4304.57ZM4512.84 3683V3357.15H4684.31C4706.48 3357.15 4724.84 3361.27 4739.41 3369.5C4754.29 3377.42 4765.38 3388.66 4772.66 3403.22C4779.94 3417.47 4783.59 3433.94 4783.59 3452.62C4783.59 3475.11 4778.52 3494.42 4768.39 3510.57C4758.25 3526.72 4744.32 3538.28 4726.59 3545.25L4794.99 3683H4745.59L4681.94 3553.32H4557.96V3683H4512.84ZM4557.96 3514.85H4680.04C4698.09 3514.85 4712.18 3509.31 4722.31 3498.22C4732.76 3487.14 4737.99 3471.94 4737.99 3452.62C4737.99 3440.59 4735.77 3430.46 4731.34 3422.22C4726.9 3413.99 4720.41 3407.66 4711.86 3403.22C4703.31 3398.47 4692.7 3396.1 4680.04 3396.1H4557.96V3514.85ZM4857.95 3683V3357.15H4903.08V3683H4857.95ZM5083.86 3683V3357.15H5153.68L5227.78 3568.52C5229.68 3574.22 5231.58 3580.56 5233.48 3587.52C5235.7 3594.17 5237.6 3600.51 5239.18 3606.52C5241.08 3612.54 5242.51 3617.77 5243.46 3622.2H5246.78C5247.73 3617.45 5249 3612.07 5250.58 3606.05C5252.16 3599.72 5253.91 3593.22 5255.81 3586.57C5257.71 3579.92 5259.45 3573.91 5261.03 3568.52L5335.13 3357.15H5404.48V3683H5359.36V3492.05C5359.36 3482.23 5359.51 3471.62 5359.83 3460.22C5360.15 3448.51 5360.46 3437.9 5360.78 3428.4C5361.1 3418.58 5361.26 3411.62 5361.26 3407.5H5357.46C5356.51 3411.62 5354.92 3417.47 5352.71 3425.07C5350.49 3432.36 5348.11 3440.12 5345.58 3448.35C5343.36 3456.27 5341.31 3463.39 5339.41 3469.72L5262.93 3683H5223.98L5147.51 3469.72C5145.61 3464.34 5143.55 3458.17 5141.33 3451.2C5139.43 3443.92 5137.37 3436.47 5135.16 3428.87C5133.26 3421.27 5131.36 3414.15 5129.46 3407.5H5126.13C5126.45 3414.47 5126.61 3423.17 5126.61 3433.62C5126.92 3443.76 5127.08 3454.05 5127.08 3464.5C5127.4 3474.63 5127.56 3483.82 5127.56 3492.05V3683H5083.86ZM5486.03 3683V3357.15H5531.15V3683H5486.03ZM5692.46 3683V3396.57H5580.84V3357.15H5850.16V3396.57H5737.59V3683H5692.46ZM5900.73 3683V3357.15H6072.2C6094.37 3357.15 6112.73 3361.27 6127.3 3369.5C6142.18 3377.42 6153.27 3388.66 6160.55 3403.22C6167.83 3417.47 6171.48 3433.94 6171.48 3452.62C6171.48 3475.11 6166.41 3494.42 6156.28 3510.57C6146.14 3526.72 6132.21 3538.28 6114.48 3545.25L6182.88 3683H6133.48L6069.83 3553.32H5945.85V3683H5900.73ZM5945.85 3514.85H6067.93C6085.98 3514.85 6100.07 3509.31 6110.2 3498.22C6120.65 3487.14 6125.88 3471.94 6125.88 3452.62C6125.88 3440.59 6123.66 3430.46 6119.23 3422.22C6114.79 3413.99 6108.3 3407.66 6099.75 3403.22C6091.2 3398.47 6080.59 3396.1 6067.93 3396.1H5945.85V3514.85ZM6208.32 3683L6337.04 3357.15H6396.42L6525.62 3683H6476.69L6444.87 3602.25H6286.22L6254.87 3683H6208.32ZM6300.94 3563.77H6429.67L6390.24 3461.65C6389.29 3458.8 6387.87 3454.84 6385.97 3449.77C6384.07 3444.71 6382.01 3439.17 6379.79 3433.15C6377.58 3426.82 6375.36 3420.48 6373.14 3414.15C6370.93 3407.5 6368.87 3401.48 6366.97 3396.1H6364.12C6361.9 3402.43 6359.37 3409.72 6356.52 3417.95C6353.67 3426.18 6350.82 3434.26 6347.97 3442.17C6345.12 3449.77 6342.74 3456.27 6340.84 3461.65L6300.94 3563.77ZM6668.89 3683V3357.15H6714.02V3529.57L6879.79 3357.15H6935.84L6811.87 3487.3L6940.12 3683H6886.44L6780.52 3519.6L6714.02 3582.3V3683H6668.89ZM6922.21 3683L7050.93 3357.15H7110.31L7239.51 3683H7190.58L7158.76 3602.25H7000.11L6968.76 3683H6922.21ZM7014.83 3563.77H7143.56L7104.13 3461.65C7103.18 3458.8 7101.76 3454.84 7099.86 3449.77C7097.96 3444.71 7095.9 3439.17 7093.68 3433.15C7091.47 3426.82 7089.25 3420.48 7087.03 3414.15C7084.82 3407.5 7082.76 3401.48 7080.86 3396.1H7078.01C7075.79 3402.43 7073.26 3409.72 7070.41 3417.95C7067.56 3426.18 7064.71 3434.26 7061.86 3442.17C7059.01 3449.77 7056.63 3456.27 7054.73 3461.65L7014.83 3563.77ZM7283.51 3683V3357.15H7454.99C7477.16 3357.15 7495.52 3361.27 7510.09 3369.5C7524.97 3377.42 7536.06 3388.66 7543.34 3403.22C7550.62 3417.47 7554.26 3433.94 7554.26 3452.62C7554.26 3475.11 7549.2 3494.42 7539.06 3510.57C7528.93 3526.72 7515 3538.28 7497.26 3545.25L7565.66 3683H7516.26L7452.61 3553.32H7328.64V3683H7283.51ZM7328.64 3514.85H7450.71C7468.76 3514.85 7482.86 3509.31 7492.99 3498.22C7503.44 3487.14 7508.66 3471.94 7508.66 3452.62C7508.66 3440.59 7506.45 3430.46 7502.01 3422.22C7497.58 3413.99 7491.09 3407.66 7482.54 3403.22C7473.99 3398.47 7463.38 3396.1 7450.71 3396.1H7328.64V3514.85ZM7591.11 3683L7719.83 3357.15H7779.21L7908.41 3683H7859.48L7827.66 3602.25H7669.01L7637.66 3683H7591.11ZM7683.73 3563.77H7812.46L7773.03 3461.65C7772.08 3458.8 7770.66 3454.84 7768.76 3449.77C7766.86 3444.71 7764.8 3439.17 7762.58 3433.15C7760.36 3426.82 7758.15 3420.48 7755.93 3414.15C7753.71 3407.5 7751.66 3401.48 7749.76 3396.1H7746.91C7744.69 3402.43 7742.16 3409.72 7739.31 3417.95C7736.46 3426.18 7733.61 3434.26 7730.76 3442.17C7727.91 3449.77 7725.53 3456.27 7723.63 3461.65L7683.73 3563.77ZM7994.53 3683L7903.81 3357.15H7952.26L8010.21 3577.07C8011.16 3580.56 8012.27 3585.62 8013.53 3592.27C8015.12 3598.61 8016.7 3605.26 8018.28 3612.22C8019.87 3619.19 8021.13 3625.37 8022.08 3630.75H8025.41C8026.36 3626.63 8027.15 3622.04 8027.78 3616.97C8028.73 3611.91 8029.68 3606.84 8030.63 3601.77C8031.9 3596.71 8033.01 3591.96 8033.96 3587.52C8034.91 3583.09 8035.54 3579.61 8035.86 3577.07L8090.01 3357.15H8148.43L8202.58 3577.07C8203.53 3580.56 8204.64 3585.62 8205.91 3592.27C8207.49 3598.61 8208.92 3605.26 8210.18 3612.22C8211.77 3619.19 8213.03 3625.37 8213.98 3630.75H8217.31C8218.26 3626.63 8219.21 3622.2 8220.16 3617.45C8221.11 3612.38 8222.22 3607.32 8223.48 3602.25C8224.75 3597.18 8225.86 3592.43 8226.81 3588C8228.08 3583.57 8229.03 3579.92 8229.66 3577.07L8288.08 3357.15H8330.83L8240.11 3683H8185.96L8129.43 3461.65C8128.48 3456.9 8127.38 3451.36 8126.11 3445.02C8124.84 3438.37 8123.58 3431.57 8122.31 3424.6C8121.04 3417.63 8119.93 3411.62 8118.98 3406.55H8116.13C8115.5 3411.93 8114.55 3418.11 8113.28 3425.07C8112.02 3432.04 8110.59 3438.85 8109.01 3445.5C8107.74 3452.15 8106.63 3457.53 8105.68 3461.65L8050.58 3683H7994.53ZM8326.8 3683L8455.52 3357.15H8514.9L8644.1 3683H8595.17L8563.35 3602.25H8404.7L8373.35 3683H8326.8ZM8419.42 3563.77H8548.15L8508.72 3461.65C8507.77 3458.8 8506.35 3454.84 8504.45 3449.77C8502.55 3444.71 8500.49 3439.17 8498.27 3433.15C8496.06 3426.82 8493.84 3420.48 8491.62 3414.15C8489.41 3407.5 8487.35 3401.48 8485.45 3396.1H8482.6C8480.38 3402.43 8477.85 3409.72 8475 3417.95C8472.15 3426.18 8469.3 3434.26 8466.45 3442.17C8463.6 3449.77 8461.22 3456.27 8459.32 3461.65L8419.42 3563.77ZM8688.1 3683V3357.15H8731.8L8889.98 3571.85C8891.56 3573.75 8893.62 3576.6 8896.15 3580.4C8898.69 3584.2 8901.22 3588 8903.75 3591.8C8906.29 3595.28 8908.35 3598.45 8909.93 3601.3H8911.83C8911.83 3596.23 8911.83 3591.32 8911.83 3586.57C8911.83 3581.51 8911.83 3576.6 8911.83 3571.85V3357.15H8956V3683H8914.68L8754.6 3464.5C8752.39 3461.02 8749.06 3456.11 8744.63 3449.77C8740.51 3443.44 8737.03 3438.37 8734.18 3434.57H8731.8C8731.8 3439.64 8731.8 3444.71 8731.8 3449.77C8731.8 3454.52 8731.8 3459.43 8731.8 3464.5V3683H8688.1ZM9184.63 3688.7C9132.07 3688.7 9092.01 3674.92 9064.46 3647.37C9037.23 3619.82 9023.61 3577.39 9023.61 3520.07C9023.61 3482.71 9029.94 3451.52 9042.61 3426.5C9055.28 3401.48 9073.96 3382.8 9098.66 3370.45C9123.36 3357.78 9153.44 3351.45 9188.91 3351.45C9211.08 3351.45 9231.18 3353.82 9249.23 3358.57C9267.28 3363.32 9282.8 3370.61 9295.78 3380.42C9309.08 3389.92 9319.22 3401.96 9326.18 3416.52C9333.47 3431.09 9337.11 3448.35 9337.11 3468.3H9291.03C9291.03 3454.37 9288.5 3442.49 9283.43 3432.67C9278.37 3422.54 9271.08 3414.31 9261.58 3407.97C9252.4 3401.64 9241.63 3397.21 9229.28 3394.67C9216.93 3391.82 9203.79 3390.4 9189.86 3390.4C9170.86 3390.4 9153.92 3392.77 9139.03 3397.52C9124.15 3402.27 9111.64 3409.72 9101.51 3419.85C9091.38 3429.98 9083.62 3442.97 9078.23 3458.8C9072.85 3474.63 9070.16 3493.47 9070.16 3515.32V3525.3C9070.16 3554.75 9074.59 3578.66 9083.46 3597.02C9092.64 3615.39 9105.78 3628.85 9122.88 3637.4C9139.98 3645.63 9160.57 3649.75 9184.63 3649.75C9209.02 3649.75 9229.13 3646.42 9244.96 3639.77C9260.79 3632.81 9272.51 3622.36 9280.11 3608.42C9288.03 3594.49 9291.98 3576.92 9291.98 3555.7V3550H9177.03V3511.52H9337.58V3683H9303.38L9298.63 3641.67C9290.08 3652.76 9279.95 3661.78 9268.23 3668.75C9256.52 3675.72 9243.53 3680.78 9229.28 3683.95C9215.35 3687.12 9200.47 3688.7 9184.63 3688.7Z" fill="black"/>
<defs>
<clipPath id="clip0_8_41">
<rect width="3754.45" height="3035.05" fill="white" transform="translate(5870)"/>
</clipPath>
<clipPath id="clip1_8_41">
<rect width="5426.77" height="1896.91" fill="white" transform="translate(0 1138)"/>
</clipPath>
</defs>
</svg>
